{
    "asset" : {
        "generator" : "Khronos glTF Blender I/O v1.5.17",
        "version" : "2.0"
    },
    "scene" : 0,
    "scenes" : [
        {
            "name" : "Scene",
            "nodes" : [
                0
            ]
        }
    ],
    "nodes" : [
        {
            "mesh" : 0,
            "name" : "AfterBurners",
            "rotation" : [
                0,
                0,
                -1,
                7.549790126404332e-08
            ],
            "scale" : [
                0.6316171884536743,
                0.5825559496879578,
                0.6316171884536743
            ],
            "translation" : [
                -0.004769802093505859,
                -0.33552491664886475,
                0.3132365047931671
            ]
        }
    ],
    "materials" : [
        {
            "alphaMode" : "BLEND",
            "doubleSided" : true,
            "emissiveFactor" : [
                1,
                0.3999440371990204,
                0.03946079406887293
            ],
            "name" : "Booster",
            "pbrMetallicRoughness" : {
                "baseColorTexture" : {
                    "index" : 0
                },
                "metallicFactor" : 0
            }
        }
    ],
    "meshes" : [
        {
            "name" : "Cone.001",
            "primitives" : [
                {
                    "attributes" : {
                        "POSITION" : 0,
                        "NORMAL" : 1,
                        "TEXCOORD_0" : 2
                    },
                    "indices" : 3,
                    "material" : 0
                }
            ]
        }
    ],
    "textures" : [
        {
            "sampler" : 0,
            "source" : 0
        }
    ],
    "images" : [
        {
            "bufferView" : 4,
            "mimeType" : "image/png",
            "name" : "droneralpha"
        }
    ],
    "accessors" : [
        {
            "bufferView" : 0,
            "componentType" : 5126,
            "count" : 117,
            "max" : [
                5.669267177581787,
                2.708883762359619,
                0.6835502982139587
            ],
            "min" : [
                -5.634573459625244,
                -0.6224406957626343,
                -7.655224323272705
            ],
            "type" : "VEC3"
        },
        {
            "bufferView" : 1,
            "componentType" : 5126,
            "count" : 117,
            "type" : "VEC3"
        },
        {
            "bufferView" : 2,
            "componentType" : 5126,
            "count" : 117,
            "type" : "VEC2"
        },
        {
            "bufferView" : 3,
            "componentType" : 5123,
            "count" : 144,
            "type" : "SCALAR"
        }
    ],
    "bufferViews" : [
        {
            "buffer" : 0,
            "byteLength" : 1404,
            "byteOffset" : 0
        },
        {
            "buffer" : 0,
            "byteLength" : 1404,
            "byteOffset" : 1404
        },
        {
            "buffer" : 0,
            "byteLength" : 936,
            "byteOffset" : 2808
        },
        {
            "buffer" : 0,
            "byteLength" : 288,
            "byteOffset" : 3744
        },
        {
            "buffer" : 0,
            "byteLength" : 790,
            "byteOffset" : 4032
        }
    ],
    "samplers" : [
        {
            "magFilter" : 9729,
            "minFilter" : 9987
        }
    ],
    "buffers" : [
        {
            "byteLength" : 4824,
            "uri" : "data:application/octet-stream;base64,"
        }
    ]
}
